{
	"patcher" : 	{
		"fileversion" : 1,
		"appversion" : 		{
			"major" : 8,
			"minor" : 1,
			"revision" : 11,
			"architecture" : "x64",
			"modernui" : 1
		}
,
		"classnamespace" : "box",
		"rect" : [ 59.0, 104.0, 640.0, 480.0 ],
		"bglocked" : 0,
		"openinpresentation" : 1,
		"default_fontsize" : 12.0,
		"default_fontface" : 0,
		"default_fontname" : "Lato",
		"gridonopen" : 1,
		"gridsize" : [ 15.0, 15.0 ],
		"gridsnaponopen" : 2,
		"objectsnaponopen" : 1,
		"statusbarvisible" : 2,
		"toolbarvisible" : 1,
		"lefttoolbarpinned" : 0,
		"toptoolbarpinned" : 0,
		"righttoolbarpinned" : 0,
		"bottomtoolbarpinned" : 0,
		"toolbars_unpinned_last_save" : 0,
		"tallnewobj" : 0,
		"boxanimatetime" : 200,
		"enablehscroll" : 1,
		"enablevscroll" : 1,
		"devicewidth" : 0.0,
		"description" : "",
		"digest" : "",
		"tags" : "",
		"style" : "",
		"subpatcher_template" : "Snappy",
		"assistshowspatchername" : 0,
		"boxes" : [ 			{
				"box" : 				{
					"channels" : 1,
					"id" : "obj-14",
					"lastchannelcount" : 0,
					"maxclass" : "live.gain~",
					"numinlets" : 1,
					"numoutlets" : 4,
					"orientation" : 1,
					"outlettype" : [ "signal", "", "float", "list" ],
					"parameter_enable" : 1,
					"patching_rect" : [ 15.0, 300.0, 105.0, 41.0 ],
					"presentation" : 1,
					"presentation_rect" : [ 84.0, 285.0, 108.0, 41.0 ],
					"saved_attribute_attributes" : 					{
						"valueof" : 						{
							"parameter_initial" : [ -21.600000000000001 ],
							"parameter_initial_enable" : 1,
							"parameter_longname" : "live.gain~",
							"parameter_mmax" : 6.0,
							"parameter_mmin" : -70.0,
							"parameter_shortname" : "gain",
							"parameter_type" : 0,
							"parameter_unitstyle" : 4
						}

					}
,
					"varname" : "live.gain~"
				}

			}
, 			{
				"box" : 				{
					"id" : "obj-2",
					"maxclass" : "live.text",
					"numinlets" : 1,
					"numoutlets" : 2,
					"outlettype" : [ "", "" ],
					"parameter_enable" : 1,
					"patching_rect" : [ 248.75, 285.0, 60.0, 60.0 ],
					"presentation" : 1,
					"presentation_rect" : [ 15.0, 255.0, 60.0, 60.0 ],
					"saved_attribute_attributes" : 					{
						"valueof" : 						{
							"parameter_enum" : [ "val1", "val2" ],
							"parameter_longname" : "live.text",
							"parameter_mmax" : 1,
							"parameter_shortname" : "live.text",
							"parameter_type" : 2
						}

					}
,
					"text" : "off",
					"texton" : "on",
					"varname" : "live.text"
				}

			}
, 			{
				"box" : 				{
					"fontname" : "Ableton Sans Light",
					"fontsize" : 16.0,
					"id" : "obj-22",
					"linecount" : 10,
					"maxclass" : "comment",
					"numinlets" : 1,
					"numoutlets" : 0,
					"patching_rect" : [ 600.0, 15.0, 22.0, 199.0 ],
					"presentation" : 1,
					"presentation_linecount" : 10,
					"presentation_rect" : [ 172.0, 0.0, 22.0, 199.0 ],
					"text" : "K\nN\nI\nS\nT\nE\nR\nE\nR\n~",
					"textjustification" : 1
				}

			}
, 			{
				"box" : 				{
					"arrows" : 2,
					"id" : "obj-30",
					"justification" : 1,
					"maxclass" : "live.line",
					"numinlets" : 1,
					"numoutlets" : 0,
					"patching_rect" : [ 405.0, 135.0, 30.0, 23.0 ],
					"presentation" : 1,
					"presentation_rect" : [ 66.833333432674408, 136.500000223517418, 21.333333134651184, 24.999999552965164 ]
				}

			}
, 			{
				"box" : 				{
					"bubbleside" : 2,
					"fontname" : "Ableton Sans Bold",
					"fontsize" : 9.5,
					"id" : "obj-29",
					"maxclass" : "comment",
					"numinlets" : 1,
					"numoutlets" : 0,
					"patching_rect" : [ 445.75, 45.0, 114.0, 18.0 ],
					"presentation" : 1,
					"presentation_rect" : [ 15.0, 160.0, 114.0, 18.0 ],
					"text" : "output brightness range"
				}

			}
, 			{
				"box" : 				{
					"bubbleside" : 2,
					"fontname" : "Ableton Sans Bold",
					"fontsize" : 9.5,
					"id" : "obj-28",
					"maxclass" : "comment",
					"numinlets" : 1,
					"numoutlets" : 0,
					"patching_rect" : [ 295.75, 45.0, 100.0, 18.0 ],
					"presentation" : 1,
					"presentation_rect" : [ 15.0, 85.0, 101.0, 18.0 ],
					"text" : "expected pitch range"
				}

			}
, 			{
				"box" : 				{
					"bubbleside" : 2,
					"fontname" : "Ableton Sans Bold",
					"fontsize" : 9.5,
					"id" : "obj-27",
					"maxclass" : "comment",
					"numinlets" : 1,
					"numoutlets" : 0,
					"patching_rect" : [ 75.0, 45.0, 53.0, 18.0 ],
					"presentation" : 1,
					"presentation_rect" : [ 15.0, 10.0, 53.0, 18.0 ],
					"text" : "rate range"
				}

			}
, 			{
				"box" : 				{
					"id" : "obj-23",
					"maxclass" : "comment",
					"numinlets" : 1,
					"numoutlets" : 0,
					"patching_rect" : [ 255.0, 15.0, 111.0, 21.0 ],
					"text" : "pitch data (0.–127.)"
				}

			}
, 			{
				"box" : 				{
					"comment" : "pitch data (0.–127.)",
					"id" : "obj-4",
					"index" : 0,
					"maxclass" : "inlet",
					"numinlets" : 0,
					"numoutlets" : 1,
					"outlettype" : [ "" ],
					"patching_rect" : [ 225.0, 15.0, 30.0, 30.0 ]
				}

			}
, 			{
				"box" : 				{
					"id" : "obj-3",
					"maxclass" : "comment",
					"numinlets" : 1,
					"numoutlets" : 0,
					"patching_rect" : [ 45.0, 15.0, 124.0, 21.0 ],
					"text" : "envelope data (0-127)"
				}

			}
, 			{
				"box" : 				{
					"comment" : "envelope data (0-127)",
					"id" : "obj-1",
					"index" : 0,
					"maxclass" : "inlet",
					"numinlets" : 0,
					"numoutlets" : 1,
					"outlettype" : [ "" ],
					"patching_rect" : [ 15.0, 15.0, 30.0, 30.0 ]
				}

			}
, 			{
				"box" : 				{
					"id" : "obj-20",
					"maxclass" : "newobj",
					"numinlets" : 0,
					"numoutlets" : 1,
					"outlettype" : [ "" ],
					"patching_rect" : [ 248.75, 255.0, 99.0, 23.0 ],
					"text" : "r in.clicker-on-off"
				}

			}
, 			{
				"box" : 				{
					"bubbleside" : 2,
					"fontname" : "Ableton Sans Bold",
					"fontsize" : 9.5,
					"id" : "obj-16",
					"maxclass" : "comment",
					"numinlets" : 1,
					"numoutlets" : 0,
					"patching_rect" : [ 310.75, 285.0, 44.0, 18.0 ],
					"presentation" : 1,
					"presentation_rect" : [ 15.0, 235.0, 74.0, 18.0 ],
					"text" : "knistern"
				}

			}
, 			{
				"box" : 				{
					"id" : "obj-15",
					"maxclass" : "newobj",
					"numinlets" : 2,
					"numoutlets" : 1,
					"outlettype" : [ "signal" ],
					"patching_rect" : [ 15.0, 360.0, 252.75, 23.0 ],
					"text" : "*~ 0"
				}

			}
, 			{
				"box" : 				{
					"bubbleside" : 2,
					"fontname" : "Ableton Sans Bold",
					"fontsize" : 9.5,
					"id" : "obj-213",
					"maxclass" : "comment",
					"numinlets" : 1,
					"numoutlets" : 0,
					"patching_rect" : [ 287.5, 225.0, 55.0, 18.0 ],
					"presentation" : 1,
					"presentation_rect" : [ 140.5, 250.0, 55.0, 18.0 ],
					"text" : "brightness"
				}

			}
, 			{
				"box" : 				{
					"bubbleside" : 2,
					"fontname" : "Ableton Sans Bold",
					"fontsize" : 9.5,
					"id" : "obj-212",
					"maxclass" : "comment",
					"numinlets" : 1,
					"numoutlets" : 0,
					"patching_rect" : [ 60.0, 235.0, 52.0, 18.0 ],
					"presentation" : 1,
					"presentation_rect" : [ 84.0, 250.0, 27.0, 18.0 ],
					"text" : "freq"
				}

			}
, 			{
				"box" : 				{
					"bubbleside" : 2,
					"fontname" : "Ableton Sans Bold",
					"fontsize" : 9.5,
					"id" : "obj-211",
					"maxclass" : "comment",
					"numinlets" : 1,
					"numoutlets" : 0,
					"patching_rect" : [ 105.0, 223.5, 53.0, 18.0 ],
					"presentation" : 1,
					"presentation_rect" : [ 84.0, 235.0, 53.0, 18.0 ],
					"text" : "clicking at"
				}

			}
, 			{
				"box" : 				{
					"comment" : "",
					"id" : "obj-200",
					"index" : 0,
					"maxclass" : "outlet",
					"numinlets" : 1,
					"numoutlets" : 0,
					"patching_rect" : [ 15.0, 405.0, 30.0, 30.0 ]
				}

			}
, 			{
				"box" : 				{
					"id" : "obj-38",
					"maxclass" : "newobj",
					"numinlets" : 1,
					"numoutlets" : 2,
					"outlettype" : [ "float", "float" ],
					"patching_rect" : [ 75.0, 135.0, 94.0, 23.0 ],
					"text" : "unpack 0. 0."
				}

			}
, 			{
				"box" : 				{
					"id" : "obj-34",
					"maxclass" : "newobj",
					"numinlets" : 5,
					"numoutlets" : 2,
					"outlettype" : [ "signal", "float" ],
					"patcher" : 					{
						"fileversion" : 1,
						"appversion" : 						{
							"major" : 8,
							"minor" : 1,
							"revision" : 11,
							"architecture" : "x64",
							"modernui" : 1
						}
,
						"classnamespace" : "box",
						"rect" : [ 34.0, 62.0, 1724.0, 1024.0 ],
						"bglocked" : 0,
						"openinpresentation" : 0,
						"default_fontsize" : 12.0,
						"default_fontface" : 0,
						"default_fontname" : "Lato",
						"gridonopen" : 1,
						"gridsize" : [ 15.0, 15.0 ],
						"gridsnaponopen" : 2,
						"objectsnaponopen" : 1,
						"statusbarvisible" : 2,
						"toolbarvisible" : 1,
						"lefttoolbarpinned" : 0,
						"toptoolbarpinned" : 0,
						"righttoolbarpinned" : 0,
						"bottomtoolbarpinned" : 0,
						"toolbars_unpinned_last_save" : 0,
						"tallnewobj" : 0,
						"boxanimatetime" : 200,
						"enablehscroll" : 1,
						"enablevscroll" : 1,
						"devicewidth" : 0.0,
						"description" : "",
						"digest" : "",
						"tags" : "",
						"style" : "",
						"subpatcher_template" : "Snappy",
						"assistshowspatchername" : 0,
						"boxes" : [ 							{
								"box" : 								{
									"comment" : "",
									"id" : "obj-2",
									"index" : 2,
									"maxclass" : "outlet",
									"numinlets" : 1,
									"numoutlets" : 0,
									"patching_rect" : [ 105.0, 210.0, 30.0, 30.0 ]
								}

							}
, 							{
								"box" : 								{
									"id" : "obj-1",
									"maxclass" : "newobj",
									"numinlets" : 2,
									"numoutlets" : 1,
									"outlettype" : [ "float" ],
									"patching_rect" : [ 105.0, 180.0, 80.0, 23.0 ],
									"text" : "snapshot~ 16"
								}

							}
, 							{
								"box" : 								{
									"id" : "obj-15",
									"maxclass" : "newobj",
									"numinlets" : 3,
									"numoutlets" : 1,
									"outlettype" : [ "signal" ],
									"patching_rect" : [ 15.0, 135.0, 87.0, 23.0 ],
									"text" : "clip~ 0. 20000."
								}

							}
, 							{
								"box" : 								{
									"id" : "obj-14",
									"maxclass" : "newobj",
									"numinlets" : 6,
									"numoutlets" : 1,
									"outlettype" : [ "signal" ],
									"patching_rect" : [ 15.0, 105.0, 135.0, 23.0 ],
									"text" : "scale~ 0. 127. 0. 20000."
								}

							}
, 							{
								"box" : 								{
									"comment" : "",
									"id" : "obj-22",
									"index" : 1,
									"maxclass" : "inlet",
									"numinlets" : 0,
									"numoutlets" : 1,
									"outlettype" : [ "signal" ],
									"patching_rect" : [ 15.0, 15.0, 30.0, 30.0 ]
								}

							}
, 							{
								"box" : 								{
									"comment" : "",
									"id" : "obj-23",
									"index" : 2,
									"maxclass" : "inlet",
									"numinlets" : 0,
									"numoutlets" : 1,
									"outlettype" : [ "" ],
									"patching_rect" : [ 60.0, 15.0, 30.0, 30.0 ]
								}

							}
, 							{
								"box" : 								{
									"comment" : "",
									"id" : "obj-27",
									"index" : 4,
									"maxclass" : "inlet",
									"numinlets" : 0,
									"numoutlets" : 1,
									"outlettype" : [ "" ],
									"patching_rect" : [ 150.0, 15.0, 30.0, 30.0 ]
								}

							}
, 							{
								"box" : 								{
									"comment" : "",
									"id" : "obj-31",
									"index" : 3,
									"maxclass" : "inlet",
									"numinlets" : 0,
									"numoutlets" : 1,
									"outlettype" : [ "" ],
									"patching_rect" : [ 95.0, 15.0, 30.0, 30.0 ]
								}

							}
, 							{
								"box" : 								{
									"comment" : "",
									"id" : "obj-32",
									"index" : 5,
									"maxclass" : "inlet",
									"numinlets" : 0,
									"numoutlets" : 1,
									"outlettype" : [ "" ],
									"patching_rect" : [ 185.0, 15.0, 30.0, 30.0 ]
								}

							}
, 							{
								"box" : 								{
									"comment" : "",
									"id" : "obj-33",
									"index" : 1,
									"maxclass" : "outlet",
									"numinlets" : 1,
									"numoutlets" : 0,
									"patching_rect" : [ 15.0, 210.0, 30.0, 30.0 ]
								}

							}
 ],
						"lines" : [ 							{
								"patchline" : 								{
									"destination" : [ "obj-2", 0 ],
									"source" : [ "obj-1", 0 ]
								}

							}
, 							{
								"patchline" : 								{
									"destination" : [ "obj-15", 0 ],
									"source" : [ "obj-14", 0 ]
								}

							}
, 							{
								"patchline" : 								{
									"destination" : [ "obj-1", 0 ],
									"order" : 0,
									"source" : [ "obj-15", 0 ]
								}

							}
, 							{
								"patchline" : 								{
									"destination" : [ "obj-33", 0 ],
									"order" : 1,
									"source" : [ "obj-15", 0 ]
								}

							}
, 							{
								"patchline" : 								{
									"destination" : [ "obj-14", 0 ],
									"source" : [ "obj-22", 0 ]
								}

							}
, 							{
								"patchline" : 								{
									"destination" : [ "obj-14", 1 ],
									"source" : [ "obj-23", 0 ]
								}

							}
, 							{
								"patchline" : 								{
									"destination" : [ "obj-14", 3 ],
									"order" : 0,
									"source" : [ "obj-27", 0 ]
								}

							}
, 							{
								"patchline" : 								{
									"destination" : [ "obj-15", 1 ],
									"order" : 1,
									"source" : [ "obj-27", 0 ]
								}

							}
, 							{
								"patchline" : 								{
									"destination" : [ "obj-14", 2 ],
									"source" : [ "obj-31", 0 ]
								}

							}
, 							{
								"patchline" : 								{
									"destination" : [ "obj-14", 4 ],
									"order" : 0,
									"source" : [ "obj-32", 0 ]
								}

							}
, 							{
								"patchline" : 								{
									"destination" : [ "obj-15", 2 ],
									"order" : 1,
									"source" : [ "obj-32", 0 ]
								}

							}
 ]
					}
,
					"patching_rect" : [ 225.0, 195.0, 319.0, 23.0 ],
					"saved_object_attributes" : 					{
						"description" : "",
						"digest" : "",
						"fontname" : "Lato",
						"globalpatchername" : "",
						"tags" : ""
					}
,
					"text" : "p zmap~"
				}

			}
, 			{
				"box" : 				{
					"id" : "obj-18",
					"maxclass" : "newobj",
					"numinlets" : 1,
					"numoutlets" : 1,
					"outlettype" : [ "signal" ],
					"patching_rect" : [ 225.0, 165.0, 30.0, 23.0 ],
					"text" : "sig~"
				}

			}
, 			{
				"box" : 				{
					"hidden" : 1,
					"id" : "obj-13",
					"maxclass" : "newobj",
					"numinlets" : 3,
					"numoutlets" : 1,
					"outlettype" : [ "" ],
					"patching_rect" : [ 75.0, 60.0, 86.0, 23.0 ],
					"text" : "pak set 0. 127."
				}

			}
, 			{
				"box" : 				{
					"hidden" : 1,
					"id" : "obj-8",
					"maxclass" : "newobj",
					"numinlets" : 3,
					"numoutlets" : 1,
					"outlettype" : [ "" ],
					"patching_rect" : [ 450.0, 60.0, 100.0, 23.0 ],
					"text" : "pak set 0. 20000."
				}

			}
, 			{
				"box" : 				{
					"id" : "obj-7",
					"maxclass" : "newobj",
					"numinlets" : 1,
					"numoutlets" : 2,
					"outlettype" : [ "float", "float" ],
					"patching_rect" : [ 450.0, 135.0, 94.0, 23.0 ],
					"text" : "unpack 0. 0."
				}

			}
, 			{
				"box" : 				{
					"hidden" : 1,
					"id" : "obj-6",
					"maxclass" : "newobj",
					"numinlets" : 3,
					"numoutlets" : 1,
					"outlettype" : [ "" ],
					"patching_rect" : [ 300.0, 60.0, 93.0, 23.0 ],
					"text" : "pak set 36. 127."
				}

			}
, 			{
				"box" : 				{
					"id" : "obj-5",
					"maxclass" : "newobj",
					"numinlets" : 1,
					"numoutlets" : 2,
					"outlettype" : [ "float", "float" ],
					"patching_rect" : [ 300.0, 135.0, 94.0, 23.0 ],
					"text" : "unpack 0. 0."
				}

			}
, 			{
				"box" : 				{
					"annotation" : "",
					"appearance" : 2,
					"id" : "obj-125",
					"ignoreclick" : 1,
					"maxclass" : "live.numbox",
					"numinlets" : 1,
					"numoutlets" : 2,
					"outlettype" : [ "", "float" ],
					"parameter_enable" : 1,
					"parameter_mappable" : 0,
					"patching_rect" : [ 60.0, 225.0, 49.0, 15.0 ],
					"presentation" : 1,
					"presentation_rect" : [ 84.0, 268.0, 49.0, 15.0 ],
					"prototypename" : "freq",
					"saved_attribute_attributes" : 					{
						"valueof" : 						{
							"parameter_exponent" : 3.333333,
							"parameter_initial" : [ 0 ],
							"parameter_initial_enable" : 1,
							"parameter_linknames" : 1,
							"parameter_longname" : "live.numbox[9]",
							"parameter_mmax" : 10000.0,
							"parameter_shortname" : "Freq",
							"parameter_type" : 0,
							"parameter_unitstyle" : 3
						}

					}
,
					"varname" : "live.numbox[9]"
				}

			}
, 			{
				"box" : 				{
					"annotation" : "",
					"appearance" : 2,
					"id" : "obj-126",
					"ignoreclick" : 1,
					"maxclass" : "live.numbox",
					"numinlets" : 1,
					"numoutlets" : 2,
					"outlettype" : [ "", "float" ],
					"parameter_enable" : 1,
					"parameter_mappable" : 0,
					"patching_rect" : [ 240.0, 225.0, 48.0, 15.0 ],
					"presentation" : 1,
					"presentation_rect" : [ 144.0, 268.0, 48.0, 15.0 ],
					"prototypename" : "freq",
					"saved_attribute_attributes" : 					{
						"valueof" : 						{
							"parameter_exponent" : 3.333333,
							"parameter_initial" : [ 0 ],
							"parameter_initial_enable" : 1,
							"parameter_linknames" : 1,
							"parameter_longname" : "live.numbox[10]",
							"parameter_mmax" : 20000.0,
							"parameter_shortname" : "Freq",
							"parameter_type" : 0,
							"parameter_unitstyle" : 3
						}

					}
,
					"varname" : "live.numbox[10]"
				}

			}
, 			{
				"box" : 				{
					"annotation" : "",
					"appearance" : 1,
					"fontsize" : 12.0,
					"id" : "obj-107",
					"maxclass" : "live.numbox",
					"numinlets" : 1,
					"numoutlets" : 2,
					"outlettype" : [ "", "float" ],
					"parameter_enable" : 1,
					"patching_rect" : [ 375.0, 165.0, 50.0, 18.0 ],
					"presentation" : 1,
					"presentation_rect" : [ 90.0, 135.0, 50.0, 18.0 ],
					"prototypename" : "pitch",
					"saved_attribute_attributes" : 					{
						"valueof" : 						{
							"parameter_initial" : [ 88 ],
							"parameter_initial_enable" : 1,
							"parameter_linknames" : 1,
							"parameter_longname" : "live.numbox[19]",
							"parameter_shortname" : "Pitch",
							"parameter_type" : 0,
							"parameter_unitstyle" : 8
						}

					}
,
					"varname" : "live.numbox[19]"
				}

			}
, 			{
				"box" : 				{
					"annotation" : "",
					"appearance" : 1,
					"fontsize" : 12.0,
					"id" : "obj-108",
					"maxclass" : "live.numbox",
					"numinlets" : 1,
					"numoutlets" : 2,
					"outlettype" : [ "", "float" ],
					"parameter_enable" : 1,
					"patching_rect" : [ 300.0, 165.0, 50.0, 18.0 ],
					"presentation" : 1,
					"presentation_rect" : [ 15.0, 135.0, 50.0, 18.0 ],
					"prototypename" : "pitch",
					"saved_attribute_attributes" : 					{
						"valueof" : 						{
							"parameter_initial" : [ 40 ],
							"parameter_initial_enable" : 1,
							"parameter_linknames" : 1,
							"parameter_longname" : "live.numbox[18]",
							"parameter_shortname" : "Pitch",
							"parameter_type" : 0,
							"parameter_unitstyle" : 8
						}

					}
,
					"varname" : "live.numbox[18]"
				}

			}
, 			{
				"box" : 				{
					"floatoutput" : 1,
					"id" : "obj-109",
					"ignoreclick" : 1,
					"listmode" : 1,
					"maxclass" : "rslider",
					"numinlets" : 2,
					"numoutlets" : 2,
					"outlettype" : [ "", "" ],
					"parameter_enable" : 0,
					"patching_rect" : [ 300.0, 90.0, 135.0, 30.0 ],
					"presentation" : 1,
					"presentation_rect" : [ 15.0, 105.0, 125.0, 30.0 ]
				}

			}
, 			{
				"box" : 				{
					"id" : "obj-50",
					"maxclass" : "newobj",
					"numinlets" : 2,
					"numoutlets" : 1,
					"outlettype" : [ "float" ],
					"patching_rect" : [ 30.0, 105.0, 41.0, 23.0 ],
					"text" : "/ 127."
				}

			}
, 			{
				"box" : 				{
					"id" : "obj-49",
					"maxclass" : "newobj",
					"numinlets" : 2,
					"numoutlets" : 1,
					"outlettype" : [ "float" ],
					"patching_rect" : [ 15.0, 135.0, 33.5, 23.0 ],
					"text" : "* 1."
				}

			}
, 			{
				"box" : 				{
					"annotation" : "",
					"appearance" : 1,
					"fontsize" : 12.0,
					"id" : "obj-43",
					"ignoreclick" : 1,
					"maxclass" : "live.numbox",
					"numinlets" : 1,
					"numoutlets" : 2,
					"outlettype" : [ "", "float" ],
					"parameter_enable" : 1,
					"parameter_mappable" : 0,
					"patching_rect" : [ 225.0, 135.0, 50.0, 18.0 ],
					"prototypename" : "pitch",
					"saved_attribute_attributes" : 					{
						"valueof" : 						{
							"parameter_initial" : [ 60 ],
							"parameter_initial_enable" : 1,
							"parameter_linknames" : 1,
							"parameter_longname" : "live.numbox[17]",
							"parameter_shortname" : "Pitch",
							"parameter_type" : 0,
							"parameter_unitstyle" : 8
						}

					}
,
					"varname" : "live.numbox[17]"
				}

			}
, 			{
				"box" : 				{
					"annotation" : "",
					"appearance" : 2,
					"fontsize" : 12.0,
					"id" : "obj-24",
					"maxclass" : "live.numbox",
					"numinlets" : 1,
					"numoutlets" : 2,
					"outlettype" : [ "", "float" ],
					"parameter_enable" : 1,
					"patching_rect" : [ 525.0, 165.0, 53.0, 18.0 ],
					"presentation" : 1,
					"presentation_rect" : [ 87.0, 210.0, 53.0, 18.0 ],
					"prototypename" : "freq",
					"saved_attribute_attributes" : 					{
						"valueof" : 						{
							"parameter_exponent" : 3.333333,
							"parameter_initial" : [ 20000 ],
							"parameter_initial_enable" : 1,
							"parameter_linknames" : 1,
							"parameter_longname" : "live.numbox[21]",
							"parameter_mmax" : 20000.0,
							"parameter_shortname" : "Freq",
							"parameter_type" : 0,
							"parameter_unitstyle" : 3
						}

					}
,
					"varname" : "live.numbox[21]"
				}

			}
, 			{
				"box" : 				{
					"annotation" : "",
					"appearance" : 2,
					"fontsize" : 12.0,
					"id" : "obj-25",
					"maxclass" : "live.numbox",
					"numinlets" : 1,
					"numoutlets" : 2,
					"outlettype" : [ "", "float" ],
					"parameter_enable" : 1,
					"patching_rect" : [ 450.0, 165.0, 53.0, 18.0 ],
					"presentation" : 1,
					"presentation_rect" : [ 15.0, 210.0, 53.0, 18.0 ],
					"prototypename" : "freq",
					"saved_attribute_attributes" : 					{
						"valueof" : 						{
							"parameter_exponent" : 3.333333,
							"parameter_initial" : [ 0 ],
							"parameter_initial_enable" : 1,
							"parameter_linknames" : 1,
							"parameter_longname" : "live.numbox[20]",
							"parameter_mmax" : 20000.0,
							"parameter_shortname" : "Freq",
							"parameter_type" : 0,
							"parameter_unitstyle" : 3
						}

					}
,
					"varname" : "live.numbox[20]"
				}

			}
, 			{
				"box" : 				{
					"floatoutput" : 1,
					"id" : "obj-26",
					"ignoreclick" : 1,
					"listmode" : 1,
					"maxclass" : "rslider",
					"numinlets" : 2,
					"numoutlets" : 2,
					"outlettype" : [ "", "" ],
					"parameter_enable" : 0,
					"patching_rect" : [ 450.0, 90.0, 135.0, 30.0 ],
					"presentation" : 1,
					"presentation_rect" : [ 15.0, 180.0, 125.0, 30.0 ],
					"size" : 20000.0
				}

			}
, 			{
				"box" : 				{
					"annotation" : "",
					"appearance" : 2,
					"fontsize" : 12.0,
					"id" : "obj-21",
					"maxclass" : "live.numbox",
					"numinlets" : 1,
					"numoutlets" : 2,
					"outlettype" : [ "", "float" ],
					"parameter_enable" : 1,
					"patching_rect" : [ 150.0, 165.0, 53.0, 18.0 ],
					"presentation" : 1,
					"presentation_rect" : [ 86.0, 60.0, 53.0, 18.0 ],
					"prototypename" : "freq",
					"saved_attribute_attributes" : 					{
						"valueof" : 						{
							"parameter_exponent" : 3.333333,
							"parameter_initial" : [ 127 ],
							"parameter_initial_enable" : 1,
							"parameter_linknames" : 1,
							"parameter_longname" : "live.numbox[25]",
							"parameter_shortname" : "Freq",
							"parameter_type" : 0,
							"parameter_unitstyle" : 3
						}

					}
,
					"varname" : "live.numbox[25]"
				}

			}
, 			{
				"box" : 				{
					"annotation" : "",
					"appearance" : 2,
					"fontsize" : 12.0,
					"id" : "obj-19",
					"maxclass" : "live.numbox",
					"numinlets" : 1,
					"numoutlets" : 2,
					"outlettype" : [ "", "float" ],
					"parameter_enable" : 1,
					"patching_rect" : [ 75.0, 165.0, 53.0, 18.0 ],
					"presentation" : 1,
					"presentation_rect" : [ 15.0, 60.0, 53.0, 18.0 ],
					"prototypename" : "freq",
					"saved_attribute_attributes" : 					{
						"valueof" : 						{
							"parameter_exponent" : 3.333333,
							"parameter_initial" : [ 0 ],
							"parameter_initial_enable" : 1,
							"parameter_linknames" : 1,
							"parameter_longname" : "live.numbox[24]",
							"parameter_shortname" : "Freq",
							"parameter_type" : 0,
							"parameter_unitstyle" : 3
						}

					}
,
					"varname" : "live.numbox[24]"
				}

			}
, 			{
				"box" : 				{
					"floatoutput" : 1,
					"id" : "obj-17",
					"ignoreclick" : 1,
					"listmode" : 1,
					"maxclass" : "rslider",
					"numinlets" : 2,
					"numoutlets" : 2,
					"outlettype" : [ "", "" ],
					"parameter_enable" : 0,
					"patching_rect" : [ 75.0, 90.0, 135.0, 30.0 ],
					"presentation" : 1,
					"presentation_rect" : [ 15.0, 30.0, 125.0, 30.0 ]
				}

			}
, 			{
				"box" : 				{
					"id" : "obj-12",
					"maxclass" : "newobj",
					"numinlets" : 1,
					"numoutlets" : 1,
					"outlettype" : [ "signal" ],
					"patching_rect" : [ 15.0, 225.0, 30.0, 23.0 ],
					"text" : "sig~"
				}

			}
, 			{
				"box" : 				{
					"id" : "obj-10",
					"maxclass" : "newobj",
					"numinlets" : 5,
					"numoutlets" : 1,
					"outlettype" : [ "" ],
					"patching_rect" : [ 15.0, 195.0, 154.0, 23.0 ],
					"text" : "zmap 0. 127. 0. 40."
				}

			}
, 			{
				"box" : 				{
					"format" : 6,
					"id" : "obj-9",
					"ignoreclick" : 1,
					"maxclass" : "flonum",
					"numinlets" : 1,
					"numoutlets" : 2,
					"outlettype" : [ "", "bang" ],
					"parameter_enable" : 0,
					"parameter_mappable" : 0,
					"patching_rect" : [ 15.0, 165.0, 50.0, 23.0 ]
				}

			}
, 			{
				"box" : 				{
					"id" : "obj-58",
					"maxclass" : "newobj",
					"numinlets" : 2,
					"numoutlets" : 3,
					"outlettype" : [ "signal", "signal", "signal" ],
					"patcher" : 					{
						"fileversion" : 1,
						"appversion" : 						{
							"major" : 8,
							"minor" : 1,
							"revision" : 11,
							"architecture" : "x64",
							"modernui" : 1
						}
,
						"classnamespace" : "box",
						"rect" : [ 72.0, 101.0, 645.0, 562.0 ],
						"bglocked" : 0,
						"openinpresentation" : 0,
						"default_fontsize" : 12.0,
						"default_fontface" : 0,
						"default_fontname" : "Lato",
						"gridonopen" : 1,
						"gridsize" : [ 15.0, 15.0 ],
						"gridsnaponopen" : 2,
						"objectsnaponopen" : 1,
						"statusbarvisible" : 2,
						"toolbarvisible" : 1,
						"lefttoolbarpinned" : 0,
						"toptoolbarpinned" : 0,
						"righttoolbarpinned" : 0,
						"bottomtoolbarpinned" : 0,
						"toolbars_unpinned_last_save" : 0,
						"tallnewobj" : 0,
						"boxanimatetime" : 200,
						"enablehscroll" : 1,
						"enablevscroll" : 1,
						"devicewidth" : 0.0,
						"description" : "",
						"digest" : "",
						"tags" : "",
						"style" : "",
						"subpatcher_template" : "Snappy",
						"assistshowspatchername" : 0,
						"boxes" : [ 							{
								"box" : 								{
									"comment" : "(signal) frequency sync — ramps 0 to 1 at attack rate",
									"id" : "obj-40",
									"index" : 3,
									"maxclass" : "outlet",
									"numinlets" : 1,
									"numoutlets" : 0,
									"patching_rect" : [ 165.0, 240.0, 30.0, 30.0 ]
								}

							}
, 							{
								"box" : 								{
									"id" : "obj-30",
									"maxclass" : "newobj",
									"numinlets" : 2,
									"numoutlets" : 1,
									"outlettype" : [ "signal" ],
									"patching_rect" : [ 150.0, 360.0, 45.0, 23.0 ],
									"text" : "gate~"
								}

							}
, 							{
								"box" : 								{
									"fontface" : 1,
									"id" : "obj-21",
									"linecount" : 2,
									"maxclass" : "comment",
									"numinlets" : 1,
									"numoutlets" : 0,
									"patching_rect" : [ 180.0, 390.0, 139.0, 35.0 ],
									"text" : "(signal) click sync — ramps 0 to 1 during click"
								}

							}
, 							{
								"box" : 								{
									"comment" : "(signal) click sync — ramps 0 to 1 during click",
									"id" : "obj-18",
									"index" : 2,
									"maxclass" : "outlet",
									"numinlets" : 1,
									"numoutlets" : 0,
									"patching_rect" : [ 150.0, 390.0, 30.0, 30.0 ]
								}

							}
, 							{
								"box" : 								{
									"id" : "obj-43",
									"linecount" : 3,
									"maxclass" : "comment",
									"numinlets" : 1,
									"numoutlets" : 0,
									"patching_rect" : [ 420.0, 78.0, 198.0, 50.0 ],
									"text" : "Cut output when attack frequency is 0 (otherwise divide by zero errors cause occasional pops)",
									"textcolor" : [ 0.376470588235294, 0.384313725490196, 0.4, 1.0 ]
								}

							}
, 							{
								"box" : 								{
									"id" : "obj-42",
									"maxclass" : "newobj",
									"numinlets" : 2,
									"numoutlets" : 1,
									"outlettype" : [ "signal" ],
									"patching_rect" : [ 135.0, 465.0, 439.0, 23.0 ],
									"text" : "*~"
								}

							}
, 							{
								"box" : 								{
									"id" : "obj-41",
									"maxclass" : "newobj",
									"numinlets" : 2,
									"numoutlets" : 1,
									"outlettype" : [ "signal" ],
									"patching_rect" : [ 555.0, 165.0, 36.0, 23.0 ],
									"text" : "!=~ 0"
								}

							}
, 							{
								"box" : 								{
									"id" : "obj-39",
									"linecount" : 3,
									"maxclass" : "comment",
									"numinlets" : 1,
									"numoutlets" : 0,
									"patching_rect" : [ 13.0, 330.0, 122.0, 50.0 ],
									"text" : "Open envelope for exactly 1 cycle of the impulse frequency",
									"textcolor" : [ 0.376470588235294, 0.384313725490196, 0.4, 1.0 ],
									"textjustification" : 2
								}

							}
, 							{
								"box" : 								{
									"id" : "obj-38",
									"linecount" : 2,
									"maxclass" : "comment",
									"numinlets" : 1,
									"numoutlets" : 0,
									"patching_rect" : [ 330.0, 315.0, 210.0, 35.0 ],
									"text" : "Map 0–1 ramp to a square wave that oscillates between -1 and 1.",
									"textcolor" : [ 0.376470588235294, 0.384313725490196, 0.4, 1.0 ]
								}

							}
, 							{
								"box" : 								{
									"id" : "obj-37",
									"linecount" : 3,
									"maxclass" : "comment",
									"numinlets" : 1,
									"numoutlets" : 0,
									"patching_rect" : [ 225.0, 255.0, 240.0, 50.0 ],
									"text" : "Scale the attack signal by the impulse ratio so ramping 0–1 takes the same time as 1 cycle of the desired impulse frequency",
									"textcolor" : [ 0.376470588235294, 0.384313725490196, 0.4, 1.0 ]
								}

							}
, 							{
								"box" : 								{
									"id" : "obj-36",
									"maxclass" : "newobj",
									"numinlets" : 2,
									"numoutlets" : 1,
									"outlettype" : [ "signal" ],
									"patching_rect" : [ 135.0, 435.0, 169.0, 23.0 ],
									"text" : "*~"
								}

							}
, 							{
								"box" : 								{
									"id" : "obj-9",
									"maxclass" : "newobj",
									"numinlets" : 6,
									"numoutlets" : 1,
									"outlettype" : [ "signal" ],
									"patching_rect" : [ 285.0, 360.0, 86.0, 23.0 ],
									"text" : "scale~ 0 1 -1 1"
								}

							}
, 							{
								"box" : 								{
									"id" : "obj-8",
									"maxclass" : "newobj",
									"numinlets" : 2,
									"numoutlets" : 1,
									"outlettype" : [ "signal" ],
									"patching_rect" : [ 285.0, 330.0, 42.0, 23.0 ],
									"text" : ">~ 0.5"
								}

							}
, 							{
								"box" : 								{
									"id" : "obj-34",
									"maxclass" : "newobj",
									"numinlets" : 2,
									"numoutlets" : 1,
									"outlettype" : [ "signal" ],
									"patching_rect" : [ 135.0, 285.0, 79.0, 23.0 ],
									"text" : "/~"
								}

							}
, 							{
								"box" : 								{
									"id" : "obj-33",
									"linecount" : 3,
									"maxclass" : "comment",
									"numinlets" : 1,
									"numoutlets" : 0,
									"patching_rect" : [ 13.0, 210.0, 120.0, 50.0 ],
									"text" : "Generate envelope for a single impulse at the attack rate",
									"textcolor" : [ 0.376470588235294, 0.384313725490196, 0.4, 1.0 ],
									"textjustification" : 2
								}

							}
, 							{
								"box" : 								{
									"id" : "obj-27",
									"linecount" : 2,
									"maxclass" : "comment",
									"numinlets" : 1,
									"numoutlets" : 0,
									"patching_rect" : [ 345.0, 159.0, 150.0, 35.0 ],
									"text" : "Keep impulse freq. higher than the gate freq.",
									"textcolor" : [ 0.376470588235294, 0.384313725490196, 0.4, 1.0 ]
								}

							}
, 							{
								"box" : 								{
									"id" : "obj-23",
									"maxclass" : "newobj",
									"numinlets" : 2,
									"numoutlets" : 1,
									"outlettype" : [ "signal" ],
									"patcher" : 									{
										"fileversion" : 1,
										"appversion" : 										{
											"major" : 8,
											"minor" : 1,
											"revision" : 11,
											"architecture" : "x64",
											"modernui" : 1
										}
,
										"classnamespace" : "box",
										"rect" : [ 1020.0, 235.0, 323.0, 240.0 ],
										"bglocked" : 0,
										"openinpresentation" : 0,
										"default_fontsize" : 12.0,
										"default_fontface" : 0,
										"default_fontname" : "Lato",
										"gridonopen" : 1,
										"gridsize" : [ 15.0, 15.0 ],
										"gridsnaponopen" : 2,
										"objectsnaponopen" : 1,
										"statusbarvisible" : 2,
										"toolbarvisible" : 1,
										"lefttoolbarpinned" : 0,
										"toptoolbarpinned" : 0,
										"righttoolbarpinned" : 0,
										"bottomtoolbarpinned" : 0,
										"toolbars_unpinned_last_save" : 0,
										"tallnewobj" : 0,
										"boxanimatetime" : 200,
										"enablehscroll" : 1,
										"enablevscroll" : 1,
										"devicewidth" : 0.0,
										"description" : "",
										"digest" : "",
										"tags" : "",
										"style" : "",
										"subpatcher_template" : "Snappy",
										"assistshowspatchername" : 0,
										"boxes" : [ 											{
												"box" : 												{
													"id" : "obj-9",
													"linecount" : 2,
													"maxclass" : "comment",
													"numinlets" : 1,
													"numoutlets" : 0,
													"patching_rect" : [ 45.0, 195.0, 270.0, 35.0 ],
													"text" : "(signal) input if it is at least 2 * comparison signal, otherwise 2 * comparison signal"
												}

											}
, 											{
												"box" : 												{
													"id" : "obj-7",
													"linecount" : 2,
													"maxclass" : "comment",
													"numinlets" : 1,
													"numoutlets" : 0,
													"patching_rect" : [ 15.0, 15.0, 105.0, 35.0 ],
													"text" : "(signal) input to constrain"
												}

											}
, 											{
												"box" : 												{
													"id" : "obj-3",
													"linecount" : 2,
													"maxclass" : "comment",
													"numinlets" : 1,
													"numoutlets" : 0,
													"patching_rect" : [ 135.0, 15.0, 150.0, 35.0 ],
													"text" : "(signal) frequency to compare to and stay above"
												}

											}
, 											{
												"box" : 												{
													"id" : "obj-41",
													"maxclass" : "newobj",
													"numinlets" : 2,
													"numoutlets" : 1,
													"outlettype" : [ "signal" ],
													"patching_rect" : [ 135.0, 105.0, 31.0, 23.0 ],
													"text" : "*~ 2"
												}

											}
, 											{
												"box" : 												{
													"id" : "obj-39",
													"maxclass" : "newobj",
													"numinlets" : 2,
													"numoutlets" : 1,
													"outlettype" : [ "signal" ],
													"patching_rect" : [ 15.0, 150.0, 139.0, 23.0 ],
													"text" : "maximum~"
												}

											}
, 											{
												"box" : 												{
													"comment" : "(signal) frequency to compare to and stay above",
													"id" : "obj-20",
													"index" : 2,
													"maxclass" : "inlet",
													"numinlets" : 0,
													"numoutlets" : 1,
													"outlettype" : [ "signal" ],
													"patching_rect" : [ 135.0, 60.0, 30.0, 30.0 ]
												}

											}
, 											{
												"box" : 												{
													"comment" : "(signal) input to constrain",
													"id" : "obj-21",
													"index" : 1,
													"maxclass" : "inlet",
													"numinlets" : 0,
													"numoutlets" : 1,
													"outlettype" : [ "signal" ],
													"patching_rect" : [ 15.0, 60.0, 30.0, 30.0 ]
												}

											}
, 											{
												"box" : 												{
													"comment" : "(signal) input if it is at least 2 * comparison signal, otherwise 2 * comparison signal",
													"id" : "obj-22",
													"index" : 1,
													"maxclass" : "outlet",
													"numinlets" : 1,
													"numoutlets" : 0,
													"patching_rect" : [ 15.0, 195.0, 30.0, 30.0 ]
												}

											}
 ],
										"lines" : [ 											{
												"patchline" : 												{
													"destination" : [ "obj-41", 0 ],
													"source" : [ "obj-20", 0 ]
												}

											}
, 											{
												"patchline" : 												{
													"destination" : [ "obj-39", 0 ],
													"source" : [ "obj-21", 0 ]
												}

											}
, 											{
												"patchline" : 												{
													"destination" : [ "obj-22", 0 ],
													"source" : [ "obj-39", 0 ]
												}

											}
, 											{
												"patchline" : 												{
													"destination" : [ "obj-39", 1 ],
													"source" : [ "obj-41", 0 ]
												}

											}
 ]
									}
,
									"patching_rect" : [ 270.0, 165.0, 74.0, 23.0 ],
									"saved_object_attributes" : 									{
										"description" : "",
										"digest" : "",
										"fontname" : "Lato",
										"globalpatchername" : "",
										"tags" : ""
									}
,
									"text" : "p constrain~"
								}

							}
, 							{
								"box" : 								{
									"id" : "obj-19",
									"maxclass" : "newobj",
									"numinlets" : 2,
									"numoutlets" : 1,
									"outlettype" : [ "signal" ],
									"patcher" : 									{
										"fileversion" : 1,
										"appversion" : 										{
											"major" : 8,
											"minor" : 1,
											"revision" : 11,
											"architecture" : "x64",
											"modernui" : 1
										}
,
										"classnamespace" : "box",
										"rect" : [ 848.0, 596.0, 284.0, 213.0 ],
										"bglocked" : 0,
										"openinpresentation" : 0,
										"default_fontsize" : 12.0,
										"default_fontface" : 0,
										"default_fontname" : "Lato",
										"gridonopen" : 1,
										"gridsize" : [ 15.0, 15.0 ],
										"gridsnaponopen" : 2,
										"objectsnaponopen" : 1,
										"statusbarvisible" : 2,
										"toolbarvisible" : 1,
										"lefttoolbarpinned" : 0,
										"toptoolbarpinned" : 0,
										"righttoolbarpinned" : 0,
										"bottomtoolbarpinned" : 0,
										"toolbars_unpinned_last_save" : 0,
										"tallnewobj" : 0,
										"boxanimatetime" : 200,
										"enablehscroll" : 1,
										"enablevscroll" : 1,
										"devicewidth" : 0.0,
										"description" : "",
										"digest" : "",
										"tags" : "",
										"style" : "",
										"subpatcher_template" : "Snappy",
										"assistshowspatchername" : 0,
										"boxes" : [ 											{
												"box" : 												{
													"id" : "obj-2",
													"linecount" : 2,
													"maxclass" : "comment",
													"numinlets" : 1,
													"numoutlets" : 0,
													"patching_rect" : [ 45.0, 165.0, 225.0, 35.0 ],
													"text" : "(signal) size of a single impulse as a proportion of the attack frequency"
												}

											}
, 											{
												"box" : 												{
													"id" : "obj-5",
													"linecount" : 2,
													"maxclass" : "comment",
													"numinlets" : 1,
													"numoutlets" : 0,
													"patching_rect" : [ 15.0, 15.0, 117.0, 35.0 ],
													"text" : "(signal) frequency of attack gate"
												}

											}
, 											{
												"box" : 												{
													"id" : "obj-3",
													"linecount" : 2,
													"maxclass" : "comment",
													"numinlets" : 1,
													"numoutlets" : 0,
													"patching_rect" : [ 150.0, 15.0, 120.0, 35.0 ],
													"text" : "(signal) frequency of the impulse oscillator"
												}

											}
, 											{
												"box" : 												{
													"id" : "obj-33",
													"maxclass" : "newobj",
													"numinlets" : 2,
													"numoutlets" : 1,
													"outlettype" : [ "signal" ],
													"patching_rect" : [ 15.0, 135.0, 154.0, 23.0 ],
													"text" : "!/~"
												}

											}
, 											{
												"box" : 												{
													"id" : "obj-31",
													"maxclass" : "newobj",
													"numinlets" : 2,
													"numoutlets" : 1,
													"outlettype" : [ "signal" ],
													"patching_rect" : [ 150.0, 105.0, 62.0, 23.0 ],
													"text" : "!/~ 60000"
												}

											}
, 											{
												"box" : 												{
													"id" : "obj-23",
													"maxclass" : "newobj",
													"numinlets" : 2,
													"numoutlets" : 1,
													"outlettype" : [ "signal" ],
													"patching_rect" : [ 15.0, 105.0, 62.0, 23.0 ],
													"text" : "!/~ 60000"
												}

											}
, 											{
												"box" : 												{
													"comment" : "(signal) frequency of attack gate",
													"id" : "obj-16",
													"index" : 1,
													"maxclass" : "inlet",
													"numinlets" : 0,
													"numoutlets" : 1,
													"outlettype" : [ "signal" ],
													"patching_rect" : [ 15.0, 60.0, 30.0, 30.0 ]
												}

											}
, 											{
												"box" : 												{
													"comment" : "(signal) frequency of the impulse oscillator",
													"id" : "obj-17",
													"index" : 2,
													"maxclass" : "inlet",
													"numinlets" : 0,
													"numoutlets" : 1,
													"outlettype" : [ "signal" ],
													"patching_rect" : [ 150.0, 60.0, 30.0, 30.0 ]
												}

											}
, 											{
												"box" : 												{
													"comment" : "(signal) size of a single impulse as a proportion of the attack frequency",
													"id" : "obj-18",
													"index" : 1,
													"maxclass" : "outlet",
													"numinlets" : 1,
													"numoutlets" : 0,
													"patching_rect" : [ 15.0, 165.0, 30.0, 30.0 ]
												}

											}
 ],
										"lines" : [ 											{
												"patchline" : 												{
													"destination" : [ "obj-23", 0 ],
													"source" : [ "obj-16", 0 ]
												}

											}
, 											{
												"patchline" : 												{
													"destination" : [ "obj-31", 0 ],
													"source" : [ "obj-17", 0 ]
												}

											}
, 											{
												"patchline" : 												{
													"destination" : [ "obj-33", 0 ],
													"source" : [ "obj-23", 0 ]
												}

											}
, 											{
												"patchline" : 												{
													"destination" : [ "obj-33", 1 ],
													"source" : [ "obj-31", 0 ]
												}

											}
, 											{
												"patchline" : 												{
													"destination" : [ "obj-18", 0 ],
													"source" : [ "obj-33", 0 ]
												}

											}
 ]
									}
,
									"patching_rect" : [ 195.0, 210.0, 94.0, 23.0 ],
									"saved_object_attributes" : 									{
										"description" : "",
										"digest" : "",
										"fontname" : "Lato",
										"globalpatchername" : "",
										"tags" : ""
									}
,
									"text" : "p impulse-ratio~"
								}

							}
, 							{
								"box" : 								{
									"fontface" : 1,
									"id" : "obj-11",
									"maxclass" : "comment",
									"numinlets" : 1,
									"numoutlets" : 0,
									"patching_rect" : [ 135.0, 525.0, 146.0, 21.0 ],
									"text" : "(signal) instrument output"
								}

							}
, 							{
								"box" : 								{
									"id" : "obj-7",
									"maxclass" : "newobj",
									"numinlets" : 2,
									"numoutlets" : 1,
									"outlettype" : [ "signal" ],
									"patching_rect" : [ 135.0, 105.0, 35.0, 23.0 ],
									"text" : "+~ 0."
								}

							}
, 							{
								"box" : 								{
									"id" : "obj-6",
									"maxclass" : "newobj",
									"numinlets" : 2,
									"numoutlets" : 1,
									"outlettype" : [ "signal" ],
									"patching_rect" : [ 270.0, 105.0, 35.0, 23.0 ],
									"text" : "+~ 0."
								}

							}
, 							{
								"box" : 								{
									"fontface" : 1,
									"id" : "obj-5",
									"linecount" : 2,
									"maxclass" : "comment",
									"numinlets" : 1,
									"numoutlets" : 0,
									"patching_rect" : [ 135.0, 15.0, 119.0, 35.0 ],
									"text" : "(signal) frequency of attack gate"
								}

							}
, 							{
								"box" : 								{
									"fontface" : 1,
									"id" : "obj-3",
									"linecount" : 2,
									"maxclass" : "comment",
									"numinlets" : 1,
									"numoutlets" : 0,
									"patching_rect" : [ 270.0, 15.0, 183.0, 35.0 ],
									"text" : "(signal) frequency of the impulse oscillation, a.k.a brightness"
								}

							}
, 							{
								"box" : 								{
									"id" : "obj-35",
									"maxclass" : "newobj",
									"numinlets" : 2,
									"numoutlets" : 1,
									"outlettype" : [ "signal" ],
									"patching_rect" : [ 135.0, 330.0, 39.0, 23.0 ],
									"text" : "<=~ 1"
								}

							}
, 							{
								"box" : 								{
									"id" : "obj-15",
									"maxclass" : "newobj",
									"numinlets" : 2,
									"numoutlets" : 1,
									"outlettype" : [ "signal" ],
									"patching_rect" : [ 135.0, 210.0, 51.0, 23.0 ],
									"text" : "phasor~"
								}

							}
, 							{
								"box" : 								{
									"comment" : "(signal) frequency of attack gate",
									"id" : "obj-55",
									"index" : 1,
									"maxclass" : "inlet",
									"numinlets" : 0,
									"numoutlets" : 1,
									"outlettype" : [ "signal" ],
									"patching_rect" : [ 135.0, 60.0, 30.0, 30.0 ]
								}

							}
, 							{
								"box" : 								{
									"comment" : "(signal) frequency of the impulse oscillation, a.k.a brightness",
									"id" : "obj-56",
									"index" : 2,
									"maxclass" : "inlet",
									"numinlets" : 0,
									"numoutlets" : 1,
									"outlettype" : [ "signal" ],
									"patching_rect" : [ 270.0, 60.0, 30.0, 30.0 ]
								}

							}
, 							{
								"box" : 								{
									"comment" : "(signal) instrument output",
									"id" : "obj-57",
									"index" : 1,
									"maxclass" : "outlet",
									"numinlets" : 1,
									"numoutlets" : 0,
									"patching_rect" : [ 135.0, 495.0, 30.0, 30.0 ]
								}

							}
 ],
						"lines" : [ 							{
								"patchline" : 								{
									"destination" : [ "obj-34", 0 ],
									"order" : 1,
									"source" : [ "obj-15", 0 ]
								}

							}
, 							{
								"patchline" : 								{
									"destination" : [ "obj-40", 0 ],
									"order" : 0,
									"source" : [ "obj-15", 0 ]
								}

							}
, 							{
								"patchline" : 								{
									"destination" : [ "obj-34", 1 ],
									"source" : [ "obj-19", 0 ]
								}

							}
, 							{
								"patchline" : 								{
									"destination" : [ "obj-19", 1 ],
									"source" : [ "obj-23", 0 ]
								}

							}
, 							{
								"patchline" : 								{
									"destination" : [ "obj-18", 0 ],
									"source" : [ "obj-30", 0 ]
								}

							}
, 							{
								"patchline" : 								{
									"destination" : [ "obj-30", 1 ],
									"midpoints" : [ 144.5, 321.0, 186.0, 321.0, 186.0, 354.0, 185.5, 354.0 ],
									"order" : 1,
									"source" : [ "obj-34", 0 ]
								}

							}
, 							{
								"patchline" : 								{
									"destination" : [ "obj-35", 0 ],
									"order" : 2,
									"source" : [ "obj-34", 0 ]
								}

							}
, 							{
								"patchline" : 								{
									"destination" : [ "obj-8", 0 ],
									"midpoints" : [ 144.5, 321.0, 294.5, 321.0 ],
									"order" : 0,
									"source" : [ "obj-34", 0 ]
								}

							}
, 							{
								"patchline" : 								{
									"destination" : [ "obj-30", 0 ],
									"order" : 0,
									"source" : [ "obj-35", 0 ]
								}

							}
, 							{
								"patchline" : 								{
									"destination" : [ "obj-36", 0 ],
									"order" : 1,
									"source" : [ "obj-35", 0 ]
								}

							}
, 							{
								"patchline" : 								{
									"destination" : [ "obj-42", 0 ],
									"source" : [ "obj-36", 0 ]
								}

							}
, 							{
								"patchline" : 								{
									"destination" : [ "obj-42", 1 ],
									"source" : [ "obj-41", 0 ]
								}

							}
, 							{
								"patchline" : 								{
									"destination" : [ "obj-57", 0 ],
									"source" : [ "obj-42", 0 ]
								}

							}
, 							{
								"patchline" : 								{
									"destination" : [ "obj-7", 0 ],
									"source" : [ "obj-55", 0 ]
								}

							}
, 							{
								"patchline" : 								{
									"destination" : [ "obj-6", 0 ],
									"source" : [ "obj-56", 0 ]
								}

							}
, 							{
								"patchline" : 								{
									"destination" : [ "obj-23", 0 ],
									"source" : [ "obj-6", 0 ]
								}

							}
, 							{
								"patchline" : 								{
									"destination" : [ "obj-15", 0 ],
									"order" : 3,
									"source" : [ "obj-7", 0 ]
								}

							}
, 							{
								"patchline" : 								{
									"destination" : [ "obj-19", 0 ],
									"midpoints" : [ 144.5, 164.0, 204.5, 164.0 ],
									"order" : 2,
									"source" : [ "obj-7", 0 ]
								}

							}
, 							{
								"patchline" : 								{
									"destination" : [ "obj-23", 1 ],
									"midpoints" : [ 144.5, 138.0, 334.5, 138.0 ],
									"order" : 1,
									"source" : [ "obj-7", 0 ]
								}

							}
, 							{
								"patchline" : 								{
									"destination" : [ "obj-41", 0 ],
									"midpoints" : [ 144.5, 138.5, 564.5, 138.5 ],
									"order" : 0,
									"source" : [ "obj-7", 0 ]
								}

							}
, 							{
								"patchline" : 								{
									"destination" : [ "obj-9", 0 ],
									"source" : [ "obj-8", 0 ]
								}

							}
, 							{
								"patchline" : 								{
									"destination" : [ "obj-36", 1 ],
									"source" : [ "obj-9", 0 ]
								}

							}
 ]
					}
,
					"patching_rect" : [ 15.0, 255.0, 229.0, 23.0 ],
					"saved_object_attributes" : 					{
						"description" : "",
						"digest" : "",
						"fontname" : "Lato",
						"globalpatchername" : "",
						"tags" : ""
					}
,
					"text" : "p flickerer-with-one-phasor"
				}

			}
 ],
		"lines" : [ 			{
				"patchline" : 				{
					"destination" : [ "obj-49", 0 ],
					"source" : [ "obj-1", 0 ]
				}

			}
, 			{
				"patchline" : 				{
					"destination" : [ "obj-12", 0 ],
					"order" : 1,
					"source" : [ "obj-10", 0 ]
				}

			}
, 			{
				"patchline" : 				{
					"destination" : [ "obj-125", 0 ],
					"order" : 0,
					"source" : [ "obj-10", 0 ]
				}

			}
, 			{
				"patchline" : 				{
					"destination" : [ "obj-34", 2 ],
					"order" : 0,
					"source" : [ "obj-107", 0 ]
				}

			}
, 			{
				"patchline" : 				{
					"destination" : [ "obj-6", 2 ],
					"hidden" : 1,
					"order" : 1,
					"source" : [ "obj-107", 0 ]
				}

			}
, 			{
				"patchline" : 				{
					"destination" : [ "obj-34", 1 ],
					"order" : 1,
					"source" : [ "obj-108", 0 ]
				}

			}
, 			{
				"patchline" : 				{
					"destination" : [ "obj-6", 1 ],
					"hidden" : 1,
					"order" : 0,
					"source" : [ "obj-108", 0 ]
				}

			}
, 			{
				"patchline" : 				{
					"destination" : [ "obj-5", 0 ],
					"source" : [ "obj-109", 0 ]
				}

			}
, 			{
				"patchline" : 				{
					"destination" : [ "obj-58", 0 ],
					"source" : [ "obj-12", 0 ]
				}

			}
, 			{
				"patchline" : 				{
					"destination" : [ "obj-17", 0 ],
					"hidden" : 1,
					"source" : [ "obj-13", 0 ]
				}

			}
, 			{
				"patchline" : 				{
					"destination" : [ "obj-15", 0 ],
					"source" : [ "obj-14", 0 ]
				}

			}
, 			{
				"patchline" : 				{
					"destination" : [ "obj-200", 0 ],
					"source" : [ "obj-15", 0 ]
				}

			}
, 			{
				"patchline" : 				{
					"destination" : [ "obj-38", 0 ],
					"source" : [ "obj-17", 0 ]
				}

			}
, 			{
				"patchline" : 				{
					"destination" : [ "obj-34", 0 ],
					"source" : [ "obj-18", 0 ]
				}

			}
, 			{
				"patchline" : 				{
					"destination" : [ "obj-10", 3 ],
					"order" : 0,
					"source" : [ "obj-19", 0 ]
				}

			}
, 			{
				"patchline" : 				{
					"destination" : [ "obj-13", 1 ],
					"hidden" : 1,
					"order" : 1,
					"source" : [ "obj-19", 0 ]
				}

			}
, 			{
				"patchline" : 				{
					"destination" : [ "obj-15", 1 ],
					"source" : [ "obj-2", 0 ]
				}

			}
, 			{
				"patchline" : 				{
					"destination" : [ "obj-2", 0 ],
					"source" : [ "obj-20", 0 ]
				}

			}
, 			{
				"patchline" : 				{
					"destination" : [ "obj-10", 4 ],
					"order" : 0,
					"source" : [ "obj-21", 0 ]
				}

			}
, 			{
				"patchline" : 				{
					"destination" : [ "obj-13", 2 ],
					"hidden" : 1,
					"order" : 1,
					"source" : [ "obj-21", 0 ]
				}

			}
, 			{
				"patchline" : 				{
					"destination" : [ "obj-34", 4 ],
					"order" : 1,
					"source" : [ "obj-24", 0 ]
				}

			}
, 			{
				"patchline" : 				{
					"destination" : [ "obj-8", 2 ],
					"hidden" : 1,
					"order" : 0,
					"source" : [ "obj-24", 0 ]
				}

			}
, 			{
				"patchline" : 				{
					"destination" : [ "obj-34", 3 ],
					"order" : 1,
					"source" : [ "obj-25", 0 ]
				}

			}
, 			{
				"patchline" : 				{
					"destination" : [ "obj-8", 1 ],
					"hidden" : 1,
					"order" : 0,
					"source" : [ "obj-25", 0 ]
				}

			}
, 			{
				"patchline" : 				{
					"destination" : [ "obj-7", 0 ],
					"source" : [ "obj-26", 0 ]
				}

			}
, 			{
				"patchline" : 				{
					"destination" : [ "obj-126", 0 ],
					"source" : [ "obj-34", 1 ]
				}

			}
, 			{
				"patchline" : 				{
					"destination" : [ "obj-58", 1 ],
					"source" : [ "obj-34", 0 ]
				}

			}
, 			{
				"patchline" : 				{
					"destination" : [ "obj-19", 0 ],
					"source" : [ "obj-38", 0 ]
				}

			}
, 			{
				"patchline" : 				{
					"destination" : [ "obj-21", 0 ],
					"source" : [ "obj-38", 1 ]
				}

			}
, 			{
				"patchline" : 				{
					"destination" : [ "obj-43", 0 ],
					"order" : 0,
					"source" : [ "obj-4", 0 ]
				}

			}
, 			{
				"patchline" : 				{
					"destination" : [ "obj-50", 0 ],
					"order" : 1,
					"source" : [ "obj-4", 0 ]
				}

			}
, 			{
				"patchline" : 				{
					"destination" : [ "obj-18", 0 ],
					"source" : [ "obj-43", 0 ]
				}

			}
, 			{
				"patchline" : 				{
					"destination" : [ "obj-9", 0 ],
					"source" : [ "obj-49", 0 ]
				}

			}
, 			{
				"patchline" : 				{
					"destination" : [ "obj-107", 0 ],
					"source" : [ "obj-5", 1 ]
				}

			}
, 			{
				"patchline" : 				{
					"destination" : [ "obj-108", 0 ],
					"source" : [ "obj-5", 0 ]
				}

			}
, 			{
				"patchline" : 				{
					"destination" : [ "obj-49", 1 ],
					"source" : [ "obj-50", 0 ]
				}

			}
, 			{
				"patchline" : 				{
					"destination" : [ "obj-14", 0 ],
					"source" : [ "obj-58", 0 ]
				}

			}
, 			{
				"patchline" : 				{
					"destination" : [ "obj-109", 0 ],
					"hidden" : 1,
					"source" : [ "obj-6", 0 ]
				}

			}
, 			{
				"patchline" : 				{
					"destination" : [ "obj-24", 0 ],
					"source" : [ "obj-7", 1 ]
				}

			}
, 			{
				"patchline" : 				{
					"destination" : [ "obj-25", 0 ],
					"source" : [ "obj-7", 0 ]
				}

			}
, 			{
				"patchline" : 				{
					"destination" : [ "obj-26", 0 ],
					"hidden" : 1,
					"source" : [ "obj-8", 0 ]
				}

			}
, 			{
				"patchline" : 				{
					"destination" : [ "obj-10", 0 ],
					"source" : [ "obj-9", 0 ]
				}

			}
 ],
		"parameters" : 		{
			"obj-107" : [ "live.numbox[19]", "Pitch", 0 ],
			"obj-108" : [ "live.numbox[18]", "Pitch", 0 ],
			"obj-125" : [ "live.numbox[9]", "Freq", 0 ],
			"obj-126" : [ "live.numbox[10]", "Freq", 0 ],
			"obj-14" : [ "live.gain~", "gain", 0 ],
			"obj-19" : [ "live.numbox[24]", "Freq", 0 ],
			"obj-2" : [ "live.text", "live.text", 0 ],
			"obj-21" : [ "live.numbox[25]", "Freq", 0 ],
			"obj-24" : [ "live.numbox[21]", "Freq", 0 ],
			"obj-25" : [ "live.numbox[20]", "Freq", 0 ],
			"obj-43" : [ "live.numbox[17]", "Pitch", 0 ],
			"parameterbanks" : 			{

			}
,
			"inherited_shortname" : 1
		}
,
		"dependency_cache" : [  ],
		"autosave" : 0
	}

}
